<svg width="25" height="25" viewBox="0 0 25 25" fill="none" xmlns="http://www.w3.org/2000/svg">
<path d="M12.2669 8.17814C10.0138 8.17814 8.17513 10.0168 8.17513 12.2699C8.17513 14.5229 10.0138 16.3616 12.2669 16.3616C14.5199 16.3616 16.3586 14.5229 16.3586 12.2699C16.3586 10.0168 14.5199 8.17814 12.2669 8.17814ZM24.539 12.2699C24.539 10.5755 24.5544 8.89642 24.4592 7.20508C24.3641 5.24055 23.9159 3.49704 22.4793 2.06047C21.0397 0.620845 19.2993 0.175757 17.3347 0.0805998C15.6403 -0.014557 13.9613 0.000790957 12.2699 0.000790957C10.5755 0.000790957 8.89648 -0.014557 7.20514 0.0805998C5.24062 0.175757 3.4971 0.623914 2.06054 2.06047C0.620906 3.50011 0.175818 5.24055 0.0806609 7.20508C-0.0144959 8.89949 0.000851992 10.5785 0.000851992 12.2699C0.000851992 13.9612 -0.0144959 15.6433 0.0806609 17.3347C0.175818 19.2992 0.623976 21.0427 2.06054 22.4793C3.50017 23.9189 5.24062 24.364 7.20514 24.4592C8.89955 24.5543 10.5786 24.539 12.2699 24.539C13.9643 24.539 15.6434 24.5543 17.3347 24.4592C19.2993 24.364 21.0428 23.9158 22.4793 22.4793C23.919 21.0397 24.3641 19.2992 24.4592 17.3347C24.5574 15.6433 24.539 13.9643 24.539 12.2699V12.2699ZM12.2669 18.5656C8.7829 18.5656 5.97117 15.7538 5.97117 12.2699C5.97117 8.78591 8.7829 5.97418 12.2669 5.97418C15.7508 5.97418 18.5626 8.78591 18.5626 12.2699C18.5626 15.7538 15.7508 18.5656 12.2669 18.5656ZM18.8204 7.18666C18.007 7.18666 17.3501 6.52977 17.3501 5.71634C17.3501 4.9029 18.007 4.24601 18.8204 4.24601C19.6339 4.24601 20.2907 4.9029 20.2907 5.71634C20.291 5.90949 20.2531 6.1008 20.1793 6.27929C20.1055 6.45779 19.9972 6.61998 19.8606 6.75656C19.7241 6.89314 19.5619 7.00143 19.3834 7.07524C19.2049 7.14904 19.0136 7.18691 18.8204 7.18666V7.18666Z" fill="#898989"/>
</svg>
