<svg width="186" height="45" viewBox="0 0 186 45" fill="none" xmlns="http://www.w3.org/2000/svg">
<path d="M40.1907 37.8551C44.6334 33.697 47.124 28.0647 47.1154 22.1955C47.1107 21.8332 46.9532 21.4872 46.6767 21.2327C46.4002 20.9779 46.0274 20.8353 45.6389 20.8353C45.2502 20.8353 44.8774 20.9779 44.6009 21.2327C44.3244 21.4872 44.1669 21.8332 44.1621 22.1955C44.1684 27.3389 41.9846 32.2747 38.0907 35.9181C36.2005 37.7275 33.9406 39.1657 31.4444 40.1478C28.9484 41.1297 26.2666 41.6356 23.5575 41.6356C20.8483 41.6356 18.1666 41.1297 15.6705 40.1478C13.1744 39.1657 10.9146 37.7275 9.02428 35.9181C5.1356 32.271 2.95291 27.3373 2.95291 22.1947C2.95291 17.0519 5.1356 12.1182 9.02428 8.47105C10.9036 6.67552 13.1465 5.24568 15.6229 4.26442C18.0994 3.28318 20.7601 2.77004 23.4508 2.75477C24.0253 2.77155 24.5701 2.99695 24.969 3.3829C25.3678 3.76882 25.5891 4.28477 25.5857 4.8207C25.5825 5.35662 25.3547 5.87012 24.9511 6.25173C24.5475 6.63331 23.9999 6.85277 23.4252 6.86332C23.372 6.86342 23.3187 6.86617 23.266 6.87155C19.1722 6.99447 15.288 8.58819 12.4253 11.3194C9.40218 14.157 7.70546 17.9942 7.70546 21.9938C7.70546 25.9934 9.40218 29.8305 12.4253 32.6681C13.9023 34.0787 15.6668 35.1996 17.6153 35.9649C19.5637 36.7302 21.6567 37.1244 23.7708 37.1244C25.885 37.1244 27.9781 36.7302 29.9265 35.9649C31.8747 35.1996 33.6394 34.0787 35.1163 32.6681C38.1442 29.8335 39.8416 25.9944 39.8356 21.9938C39.8418 21.3637 39.714 20.7384 39.4597 20.1546C39.2053 19.5708 38.8294 19.0397 38.3536 18.5921C37.8778 18.1444 37.3117 17.789 36.6879 17.5466C36.0641 17.3041 35.395 17.1792 34.719 17.1792C34.043 17.1792 33.3739 17.3041 32.7501 17.5466C32.1262 17.789 31.5601 18.1444 31.0843 18.5921C30.6085 19.0397 30.2327 19.5708 29.9782 20.1546C29.7239 20.7384 29.5962 21.3637 29.6024 21.9938C29.6024 22.0339 29.6052 22.0717 29.6087 22.1103C29.6052 22.1489 29.6024 22.1874 29.6024 22.2268C29.6121 23.3254 29.2714 24.4019 28.6237 25.3199C27.9761 26.2377 27.0506 26.9554 25.9647 27.3821C24.8789 27.8087 23.6814 27.925 22.5247 27.7163C21.3677 27.5073 20.3035 26.9829 19.4668 26.2092C18.6302 25.4355 18.0589 24.4476 17.8255 23.3706C17.592 22.2937 17.707 21.1764 18.1556 20.1606C18.6043 19.1446 19.3666 18.2759 20.3457 17.6645C21.3248 17.0532 22.4766 16.7268 23.6549 16.7267C23.8504 16.7289 24.0443 16.6949 24.2255 16.6267C24.4068 16.5585 24.5716 16.4575 24.7106 16.3294C24.8496 16.2013 24.9601 16.0488 25.0353 15.8807C25.1108 15.7126 25.1495 15.5322 25.1495 15.3499C25.1495 15.1677 25.1108 14.9873 25.0353 14.8192C24.9601 14.6511 24.8496 14.4985 24.7106 14.3705C24.5716 14.2424 24.4068 14.1413 24.2255 14.0731C24.0443 14.0049 23.8504 13.9709 23.6549 13.9732C21.9062 13.9822 20.1995 14.474 18.7502 15.3864C17.3008 16.2988 16.1738 17.5911 15.5113 19.1001C14.8489 20.609 14.6806 22.2672 15.0277 23.8653C15.3748 25.4634 16.2218 26.9297 17.4618 28.0795C18.7018 29.2292 20.2793 30.0107 21.9952 30.3256C23.7109 30.6402 25.4885 30.474 27.1032 29.848C28.7178 29.2219 30.0976 28.1641 31.0682 26.8077C32.0387 25.4513 32.5566 23.8573 32.5566 22.2268C32.5566 22.1866 32.5537 22.1489 32.5503 22.1103C32.5537 22.0717 32.5566 22.0331 32.5566 21.9938C32.5507 21.7255 32.6024 21.4589 32.7087 21.2094C32.8147 20.96 32.9733 20.7328 33.1746 20.5413C33.3761 20.3497 33.6165 20.1974 33.8818 20.0935C34.1471 19.9896 34.4322 19.9361 34.7198 19.9361C35.0075 19.9361 35.2926 19.9896 35.5579 20.0935C35.8231 20.1974 36.0636 20.3497 36.2651 20.5413C36.4664 20.7328 36.625 20.96 36.731 21.2094C36.8372 21.4589 36.889 21.7255 36.8831 21.9938C36.887 25.2691 35.4965 28.4118 33.0168 30.7318C31.8146 31.8835 30.3771 32.7987 28.7892 33.4237C27.2012 34.0488 25.495 34.3706 23.7713 34.3706C22.0478 34.3706 20.3416 34.0488 18.7537 33.4237C17.1657 32.7987 15.7282 31.8835 14.5259 30.7318C12.0496 28.4098 10.6597 25.2683 10.6597 21.9938C10.6597 18.7192 12.0496 15.5777 14.5259 13.2557C15.7291 12.1055 17.1667 11.1911 18.7542 10.5663C20.3418 9.94138 22.0471 9.61861 23.7704 9.61688C23.9029 9.61654 24.0348 9.59952 24.1626 9.56625C25.4198 9.38649 26.5612 8.7803 27.3684 7.864C28.1757 6.94768 28.5915 5.78576 28.5364 4.60113C28.4812 3.41649 27.9587 2.29256 27.0693 1.44495C26.18 0.597333 24.9864 0.0857132 23.7174 0.00823766C23.6644 0.00285411 23.611 0.000104296 23.5575 0C23.5278 0 23.4983 0 23.4685 0C23.4539 0 23.4396 0 23.4254 0C23.4112 0 23.3965 0.00160623 23.3823 0.00200806C20.3125 0.0245179 17.2777 0.613378 14.4531 1.73464C11.6285 2.85589 9.0699 4.48738 6.92477 6.53502C2.48935 10.6976 0 16.327 0 22.1947C0 28.0622 2.48935 33.6915 6.92477 37.8541C9.08972 39.9226 11.6766 41.5665 14.5331 42.6886C17.3897 43.8109 20.4582 44.3891 23.5579 44.3891C26.6578 44.3891 29.7261 43.8109 32.5828 42.6886C35.4394 41.5665 38.0261 39.9226 40.1911 37.8541L40.1907 37.8551Z" fill="url(#paint0_linear_5_1131)"/>
<path d="M66.845 30.3394C65.3054 30.3394 63.8855 30.004 62.5851 29.3333C61.2996 28.6485 60.2758 27.7123 59.5135 26.5245C58.7512 25.3227 58.37 23.9812 58.37 22.5C58.37 21.0188 58.7512 19.6843 59.5135 18.4965C60.2758 17.2947 61.2996 16.3585 62.5851 15.6877C63.8855 15.003 65.3054 14.6606 66.845 14.6606C68.1005 14.6606 69.2439 14.8703 70.2753 15.2895C71.3216 15.6947 72.2184 16.2746 72.9657 17.0292L70.8806 18.9367C70.3425 18.4057 69.7447 18.0074 69.087 17.7419C68.4443 17.4764 67.6895 17.3436 66.8225 17.3436C65.836 17.3436 64.9317 17.5602 64.1097 17.9934C63.2876 18.4126 62.6299 19.0205 62.1367 19.817C61.6584 20.5996 61.4192 21.4939 61.4192 22.5C61.4192 23.5061 61.6658 24.4075 62.1591 25.204C62.6523 25.9865 63.31 26.5944 64.1321 27.0276C64.9691 27.4468 65.8809 27.6564 66.8674 27.6564C68.3621 27.6564 69.5877 27.2442 70.5443 26.4197C70.8433 26.1682 71.1048 25.8468 71.329 25.4555C71.5532 25.0642 71.7177 24.638 71.8223 24.1769H66.7777V21.7664H74.6473C74.7519 22.1577 74.8042 22.5978 74.8042 23.0869C74.8042 24.0791 74.6398 25.0013 74.311 25.8538C73.9971 26.7062 73.5113 27.4538 72.8536 28.0966C72.1362 28.8232 71.2693 29.3822 70.2529 29.7734C69.2365 30.1507 68.1005 30.3394 66.845 30.3394Z" fill="white"/>
<path d="M77.2967 14.996H80.2338V30.004H77.2967V14.996Z" fill="white"/>
<path d="M88.4819 30.3394C87.3011 30.3394 86.2473 30.0948 85.3206 29.6057C84.3939 29.1027 83.669 28.425 83.1458 27.5725C82.6376 26.7062 82.3835 25.735 82.3835 24.659C82.3835 23.597 82.6376 22.6328 83.1458 21.7664C83.669 20.9 84.3939 20.2223 85.3206 19.7332C86.2473 19.2301 87.3011 18.9786 88.4819 18.9786C89.6478 18.9786 90.6941 19.2301 91.6208 19.7332C92.5475 20.2223 93.2649 20.9 93.7731 21.7664C94.2963 22.6328 94.5578 23.597 94.5578 24.659C94.5578 25.735 94.2963 26.7062 93.7731 27.5725C93.2649 28.425 92.5475 29.1027 91.6208 29.6057C90.6941 30.0948 89.6478 30.3394 88.4819 30.3394ZM88.4819 27.8031C89.0499 27.8031 89.573 27.6773 90.0513 27.4258C90.5296 27.1743 90.9108 26.811 91.1948 26.3359C91.4788 25.8607 91.6208 25.3018 91.6208 24.659C91.6208 24.0302 91.4788 23.4782 91.1948 23.0031C90.9108 22.528 90.5296 22.1646 90.0513 21.9131C89.573 21.6616 89.0499 21.5358 88.4819 21.5358C87.9139 21.5358 87.3908 21.6616 86.9125 21.9131C86.4342 22.1646 86.0456 22.528 85.7466 23.0031C85.4626 23.4782 85.3206 24.0302 85.3206 24.659C85.3206 25.2878 85.4626 25.8468 85.7466 26.3359C86.0456 26.811 86.4342 27.1743 86.9125 27.4258C87.3908 27.6773 87.9139 27.8031 88.4819 27.8031Z" fill="white"/>
<path d="M103.063 30.3394C102.286 30.3394 101.591 30.1857 100.978 29.8782C100.38 29.5708 99.9317 29.1865 99.6327 28.7254H99.4534V30.004H96.6957V14.996H99.6327V19.1043L99.4534 20.6135H99.6327C99.9466 20.1524 100.403 19.7681 101 19.4607C101.598 19.1393 102.286 18.9786 103.063 18.9786C104.094 18.9786 105.029 19.2231 105.866 19.7122C106.718 20.1873 107.383 20.8581 107.861 21.7245C108.339 22.5908 108.579 23.569 108.579 24.659C108.579 25.7629 108.339 26.7481 107.861 27.6145C107.383 28.4669 106.718 29.1376 105.866 29.6267C105.029 30.1018 104.094 30.3394 103.063 30.3394ZM102.547 27.8031C103.1 27.8031 103.616 27.6704 104.094 27.4049C104.573 27.1394 104.954 26.769 105.238 26.2939C105.522 25.8188 105.664 25.2738 105.664 24.659C105.664 24.0441 105.522 23.4991 105.238 23.024C104.954 22.5489 104.573 22.1856 104.094 21.9341C103.616 21.6686 103.1 21.5358 102.547 21.5358C102.009 21.5358 101.501 21.6686 101.023 21.9341C100.545 22.1856 100.163 22.5489 99.8794 23.024C99.5954 23.4991 99.4534 24.0441 99.4534 24.659C99.4534 25.2738 99.5954 25.8188 99.8794 26.2939C100.163 26.769 100.545 27.1394 101.023 27.4049C101.501 27.6704 102.009 27.8031 102.547 27.8031Z" fill="white"/>
<path d="M114.337 30.3394C113.127 30.3394 112.133 30.011 111.355 29.3542C110.578 28.6835 110.19 27.8101 110.19 26.7341C110.19 26.0214 110.391 25.3926 110.795 24.8476C111.199 24.3026 111.752 23.8834 112.454 23.59C113.157 23.2965 113.934 23.1498 114.786 23.1498C115.967 23.1498 116.976 23.3105 117.813 23.6319V23.1708C117.813 22.5839 117.573 22.1087 117.095 21.7454C116.632 21.3821 116.004 21.2004 115.212 21.2004C114.674 21.2004 114.151 21.3192 113.642 21.5568C113.149 21.7804 112.738 22.0808 112.409 22.4581L110.526 21.0747C111.079 20.4039 111.774 19.8869 112.611 19.5236C113.448 19.1602 114.36 18.9786 115.346 18.9786C117.095 18.9786 118.425 19.3559 119.337 20.1105C120.249 20.8651 120.705 21.969 120.705 23.4223V30.004H117.813V28.914H117.633C117.289 29.3333 116.834 29.6756 116.266 29.9411C115.713 30.2066 115.07 30.3394 114.337 30.3394ZM115.032 28.2014C115.884 28.2014 116.557 27.9498 117.05 27.4468C117.558 26.9297 117.813 26.3289 117.813 25.6441C117.05 25.3088 116.251 25.1411 115.414 25.1411C113.889 25.1411 113.127 25.6721 113.127 26.7341C113.127 27.1673 113.291 27.5236 113.62 27.8031C113.949 28.0686 114.42 28.2014 115.032 28.2014Z" fill="white"/>
<path d="M123.408 14.996H126.345V30.004H123.408V14.996Z" fill="white"/>
<path d="M129.635 14.996H135.487C136.533 14.996 137.46 15.1986 138.267 15.6039C139.089 16.0091 139.724 16.5751 140.173 17.3017C140.621 18.0144 140.845 18.8249 140.845 19.7332C140.845 20.6974 140.517 21.5568 139.859 22.3114C139.216 23.052 138.402 23.59 137.415 23.9254L137.393 24.0721L141.697 29.8363V30.004H138.222L134.074 24.3655H132.662V30.004H129.635V14.996ZM135.464 21.7664C136.152 21.7664 136.713 21.5707 137.146 21.1795C137.579 20.7882 137.796 20.2921 137.796 19.6913C137.796 19.1183 137.587 18.6292 137.168 18.224C136.765 17.8188 136.212 17.6161 135.509 17.6161H132.662V21.7664H135.464Z" fill="white"/>
<path d="M146.764 30.3394C145.553 30.3394 144.559 30.011 143.782 29.3542C143.005 28.6835 142.616 27.8101 142.616 26.7341C142.616 26.0214 142.818 25.3926 143.221 24.8476C143.625 24.3026 144.178 23.8834 144.881 23.59C145.583 23.2965 146.36 23.1498 147.212 23.1498C148.393 23.1498 149.402 23.3105 150.239 23.6319V23.1708C150.239 22.5839 150 22.1087 149.522 21.7454C149.058 21.3821 148.43 21.2004 147.638 21.2004C147.1 21.2004 146.577 21.3192 146.069 21.5568C145.576 21.7804 145.165 22.0808 144.836 22.4581L142.952 21.0747C143.505 20.4039 144.2 19.8869 145.037 19.5236C145.875 19.1602 146.786 18.9786 147.773 18.9786C149.522 18.9786 150.852 19.3559 151.764 20.1105C152.675 20.8651 153.131 21.969 153.131 23.4223V30.004H150.239V28.914H150.06C149.716 29.3333 149.26 29.6756 148.692 29.9411C148.139 30.2066 147.496 30.3394 146.764 30.3394ZM147.459 28.2014C148.311 28.2014 148.983 27.9498 149.477 27.4468C149.985 26.9297 150.239 26.3289 150.239 25.6441C149.477 25.3088 148.677 25.1411 147.84 25.1411C146.315 25.1411 145.553 25.6721 145.553 26.7341C145.553 27.1673 145.718 27.5236 146.046 27.8031C146.375 28.0686 146.846 28.2014 147.459 28.2014Z" fill="white"/>
<path d="M155.834 19.314H158.592V20.6555H158.771C159.115 20.1384 159.601 19.7332 160.228 19.4397C160.856 19.1323 161.536 18.9786 162.269 18.9786C163.644 18.9786 164.69 19.3699 165.407 20.1524C166.125 20.9349 166.484 22.0039 166.484 23.3594V30.004H163.547V23.6948C163.547 23.0101 163.36 22.4791 162.986 22.1018C162.612 21.7245 162.089 21.5358 161.417 21.5358C160.624 21.5358 159.982 21.8223 159.488 22.3952C159.01 22.9681 158.771 23.6878 158.771 24.5542V30.004H155.834V19.314Z" fill="white"/>
<path d="M169.256 14.996H172.193V23.1708H172.35L176.453 19.314H180.062V19.4816L175.735 23.4433L180.264 29.8363V30.004H176.789L173.672 25.3297L172.193 26.6922V30.004H169.256V14.996Z" fill="white"/>
<defs>
<linearGradient id="paint0_linear_5_1131" x1="6.83174" y1="37.7752" x2="34.7215" y2="8.50184" gradientUnits="userSpaceOnUse">
<stop stop-color="#CD7E45"/>
<stop offset="1" stop-color="#E11B18"/>
</linearGradient>
</defs>
</svg>
