<svg width="181" height="182" viewBox="0 0 181 182" fill="none" xmlns="http://www.w3.org/2000/svg">
<path d="M133.072 158.89C147.782 144.183 156.028 124.262 156 103.503C155.984 102.222 155.463 100.998 154.547 100.098C153.632 99.1968 152.398 98.6923 151.111 98.6923C149.824 98.6923 148.59 99.1968 147.674 100.098C146.759 100.998 146.237 102.222 146.222 103.503C146.242 121.695 139.012 139.152 126.119 152.039C119.86 158.439 112.378 163.525 104.113 166.999C95.8486 170.472 86.9693 172.261 77.9993 172.261C69.0292 172.261 60.1499 170.472 51.8853 166.999C43.6208 163.525 36.1384 158.439 29.8795 152.039C17.0041 139.14 9.77714 121.689 9.77714 103.5C9.77714 85.3108 17.0041 67.8608 29.8795 54.9613C36.1019 48.6107 43.5282 43.5534 51.7277 40.0828C59.9273 36.6123 68.737 34.7974 77.6461 34.7433C79.5483 34.8027 81.352 35.5999 82.6726 36.965C83.9933 38.3299 84.7261 40.1548 84.7146 42.0503C84.7039 43.9458 83.9498 45.762 82.6134 47.1117C81.2771 48.4613 79.4641 49.2376 77.5612 49.2749C77.385 49.2752 77.2087 49.285 77.0339 49.304C63.4796 49.7388 50.6188 55.3756 41.1405 65.0358C31.1308 75.0718 25.5129 88.6437 25.5129 102.79C25.5129 116.936 31.1308 130.508 41.1405 140.544C46.0306 145.533 51.8731 149.498 58.3244 152.204C64.7756 154.911 71.7056 156.305 78.7056 156.305C85.7057 156.305 92.6358 154.911 99.0871 152.204C105.538 149.498 111.381 145.533 116.271 140.544C126.296 130.518 131.916 116.94 131.896 102.79C131.917 100.561 131.494 98.3498 130.652 96.2847C129.809 94.22 128.565 92.3415 126.99 90.7583C125.414 89.1749 123.54 87.9181 121.474 87.0605C119.409 86.2027 117.193 85.7612 114.955 85.7612C112.717 85.7612 110.502 86.2027 108.436 87.0605C106.37 87.9181 104.496 89.1749 102.921 90.7583C101.345 92.3415 100.101 94.22 99.2584 96.2847C98.4165 98.3498 97.9934 100.561 98.0141 102.79C98.0141 102.932 98.0233 103.065 98.0347 103.202C98.0233 103.338 98.0141 103.475 98.0141 103.614C98.0462 107.5 96.9181 111.307 94.7734 114.554C92.6294 117.8 89.5649 120.339 85.9697 121.848C82.3744 123.357 78.4095 123.768 74.5795 123.03C70.7489 122.291 67.2251 120.436 64.455 117.699C61.6849 114.963 59.7934 111.469 59.0204 107.66C58.2475 103.851 58.628 99.8989 60.1136 96.306C61.5993 92.7125 64.1231 89.6399 67.3648 87.4776C70.6066 85.3153 74.4204 84.1609 78.3218 84.1608C78.9689 84.1686 79.6111 84.0483 80.2111 83.8072C80.8111 83.5659 81.357 83.2085 81.8172 82.7555C82.2774 82.3026 82.6434 81.7631 82.8924 81.1684C83.1421 80.5738 83.2705 79.9357 83.2705 79.2912C83.2705 78.6468 83.1421 78.0087 82.8924 77.414C82.6434 76.8193 82.2774 76.2799 81.8172 75.8269C81.357 75.374 80.8111 75.0165 80.2111 74.7753C79.6111 74.5341 78.9689 74.4139 78.3218 74.4217C72.5318 74.4537 66.8808 76.193 62.0821 79.4202C57.2834 82.6474 53.5518 87.2179 51.3583 92.5551C49.1648 97.8921 48.6076 103.757 49.7569 109.409C50.9062 115.061 53.7106 120.248 57.8163 124.314C61.9219 128.381 67.1449 131.145 72.8265 132.259C78.5073 133.371 84.3929 132.784 89.739 130.569C95.0852 128.355 99.6536 124.614 102.867 119.816C106.081 115.019 107.795 109.381 107.795 103.614C107.795 103.472 107.786 103.338 107.775 103.202C107.786 103.065 107.795 102.929 107.795 102.79C107.776 101.841 107.947 100.898 108.299 100.015C108.65 99.1336 109.175 98.3299 109.842 97.6526C110.509 96.9747 111.305 96.4361 112.183 96.0687C113.062 95.7013 114.005 95.512 114.958 95.512C115.91 95.512 116.854 95.7013 117.733 96.0687C118.611 96.4361 119.407 96.9747 120.074 97.6526C120.741 98.3299 121.266 99.1336 121.617 100.015C121.969 100.898 122.14 101.841 122.121 102.79C122.134 114.374 117.529 125.49 109.319 133.695C105.339 137.769 100.579 141.006 95.3213 143.216C90.0637 145.427 84.4143 146.566 78.7071 146.566C73.0006 146.566 67.3514 145.427 62.0936 143.216C56.836 141.006 52.0763 137.769 48.0956 133.695C39.8965 125.483 35.2943 114.371 35.2943 102.79C35.2943 91.208 39.8965 80.0969 48.0956 71.884C52.0794 67.816 56.8392 64.582 62.0956 62.3719C67.3519 60.1617 72.9985 59.0201 78.7042 59.014C79.143 59.0127 79.5797 58.9526 80.0028 58.8349C84.1653 58.1991 87.9446 56.0551 90.6173 52.8142C93.2901 49.5733 94.6671 45.4637 94.4844 41.2738C94.3018 37.0838 92.5716 33.1086 89.627 30.1106C86.6824 27.1127 82.7304 25.3032 78.5287 25.0291C78.3532 25.0101 78.1762 25.0004 77.9993 25C77.9008 25 77.8031 25 77.7046 25C77.6561 25 77.609 25 77.5619 25C77.5148 25 77.4663 25.0057 77.4192 25.0071C67.2549 25.0867 57.2069 27.1695 47.8546 31.1352C38.5022 35.101 30.0306 40.8714 22.928 48.1137C8.24229 62.8363 0 82.7468 0 103.5C0 124.253 8.24229 144.164 22.928 158.886C30.0962 166.202 38.6614 172.016 48.1194 175.985C57.5775 179.955 67.7373 182 78.0007 182C88.2642 182 98.4236 179.955 107.882 175.985C117.34 172.016 125.905 166.202 133.073 158.886L133.072 158.89Z" fill="#4E4E4E"/>
<circle cx="128.5" cy="52.5" r="52.5" fill="#2F2F2F"/>
<path d="M110.5 19.1666H147.5V37.6666L135.167 49.9999L147.5 62.3333V80.8333H110.5V62.3333L122.833 49.9999L110.5 37.6666V19.1666ZM141.333 63.8749L129 51.5416L116.667 63.8749V74.6666H141.333V63.8749ZM129 48.4583L141.333 36.1249V25.3333H116.667V36.1249L129 48.4583ZM122.833 31.4999H135.167V33.8124L129 39.9791L122.833 33.8124V31.4999Z" fill="#4E4E4E"/>
</svg>
