<svg width="30" height="18" viewBox="0 0 30 18" fill="none" xmlns="http://www.w3.org/2000/svg">
<path d="M28.5702 1.71117C28.7685 1.05242 28.5702 0.569336 27.6323 0.569336H24.5256C23.7351 0.569336 23.3738 0.987253 23.1755 1.44625C23.1755 1.44625 21.5959 5.29817 19.3576 7.79575C18.6351 8.5225 18.305 8.752 17.9112 8.752C17.7143 8.752 17.4281 8.5225 17.4281 7.86375V1.71117C17.4281 0.92067 17.2 0.569336 16.5413 0.569336H11.6594C11.1664 0.569336 10.8689 0.934836 10.8689 1.28334C10.8689 2.03134 11.9881 2.20417 12.1028 4.31217V8.88517C12.1028 9.88675 11.9229 10.0695 11.5263 10.0695C10.4737 10.0695 7.91233 6.20342 6.39225 1.77775C6.09617 0.917836 5.79725 0.570753 5.00392 0.570753H1.89859C1.01034 0.570753 0.833252 0.98867 0.833252 1.44767C0.833252 2.27217 1.88584 6.35217 5.73634 11.7483C8.30334 15.433 11.9173 17.4305 15.2096 17.4305C17.183 17.4305 17.4267 16.9871 17.4267 16.2221V13.4369C17.4267 12.5501 17.6151 12.3716 18.2398 12.3716C18.6988 12.3716 19.4893 12.6039 21.3324 14.379C23.4376 16.4842 23.7861 17.4291 24.969 17.4291H28.0743C28.9612 17.4291 29.4046 16.9857 29.1496 16.1102C28.8705 15.2389 27.8647 13.971 26.5302 12.4708C25.8048 11.6151 24.7211 10.6943 24.391 10.2338C23.9306 9.64025 24.0638 9.37817 24.391 8.85117C24.3924 8.85259 28.1763 3.52309 28.5702 1.71117V1.71117Z" fill="#898989"/>
</svg>
