<svg width="30" height="22" viewBox="0 0 30 22" fill="none" xmlns="http://www.w3.org/2000/svg">
<path d="M29.2541 3.83145C29.0847 3.20071 28.7527 2.62552 28.2912 2.16344C27.8297 1.70136 27.2549 1.36859 26.6244 1.19844C24.3035 0.574219 15 0.574219 15 0.574219C15 0.574219 5.69648 0.574219 3.37559 1.19512C2.74479 1.36472 2.16973 1.6973 1.70814 2.15947C1.24656 2.62164 0.914701 3.19712 0.745898 3.82812C0.125 6.15234 0.125 11 0.125 11C0.125 11 0.125 15.8477 0.745898 18.1686C1.08789 19.4502 2.09727 20.4596 3.37559 20.8016C5.69648 21.4258 15 21.4258 15 21.4258C15 21.4258 24.3035 21.4258 26.6244 20.8016C27.9061 20.4596 28.9121 19.4502 29.2541 18.1686C29.875 15.8477 29.875 11 29.875 11C29.875 11 29.875 6.15234 29.2541 3.83145ZM12.0449 15.4492V6.55078L19.748 10.9668L12.0449 15.4492Z" fill="#898989"/>
</svg>
